<?xml version="1.0" encoding="UTF-8"?>
<svg id="Layer_1" data-name="Layer 1" xmlns="http://www.w3.org/2000/svg" viewBox="0 0 450.45 87.53">
  <defs>
    <style>
      .cls-1 {
        stroke-width: 0px;
      }

      .cls-1, .cls-2 {
        fill: #f8b318;
      }

      .cls-2 {
        font-family: ArialMT, Arial;
        font-size: 74px;
      }
    </style>
  </defs>
  <text class="cls-2" transform="translate(56.06 63.5)"><tspan x="0" y="0">Digital R&amp;D</tspan></text>
  <path class="cls-1" d="m24.53,10.76c-.24-1.34-1.52-2.24-2.87-2-7.06,1.25-12.66,6.78-13.94,13.76-.25,1.34.64,2.63,1.99,2.88,1.35.25,2.63-.65,2.88-1.99.91-4.95,4.9-8.88,9.94-9.77,1.34-.24,2.24-1.52,2-2.87Z"/>
  <path class="cls-1" d="m24.74,22.51c-4.09,0-7.42,3.33-7.42,7.42,0,3.22,2.07,5.94,4.95,6.97v15.3h4.95v-15.3c2.87-1.02,4.95-3.75,4.95-6.97,0-4.09-3.33-7.42-7.42-7.42Zm0,9.9c-1.36,0-2.47-1.11-2.47-2.47s1.11-2.47,2.47-2.47,2.47,1.11,2.47,2.47-1.11,2.47-2.47,2.47Z"/>
  <path class="cls-1" d="m12.37,57.14v2.47c0,3.23,2.07,5.95,4.95,6.97v2.93c0,4.09,3.33,7.42,7.42,7.42s7.42-3.33,7.42-7.42v-2.93c2.88-1.02,4.95-3.74,4.95-6.97v-2.47H12.37Z"/>
  <path class="cls-1" d="m42.23,8.3C37.55,3.63,31.34,1.06,24.74,1.06h-.02C12.77,1.08,2.55,9.53.42,21.18c-1.6,8.74,1.42,17.4,8.07,23.18,1.88,1.63,3.17,4.87,3.66,7.84h5c-.51-4.07-2.26-8.82-5.42-11.57-5.32-4.62-7.73-11.56-6.45-18.56C6.99,12.77,15.16,6.02,24.72,6.01c5.3,0,10.27,2.06,14.01,5.79,3.74,3.74,5.8,8.71,5.8,14,0,5.67-2.48,11.08-6.8,14.83-3.16,2.74-4.9,7.49-5.41,11.56h5c.49-2.96,1.77-6.2,3.65-7.82,5.41-4.69,8.51-11.46,8.51-18.57,0-6.61-2.58-12.83-7.25-17.5Z"/>
</svg>